<svg width="166" height="192" viewBox="0 0 166 192" fill="none" xmlns="http://www.w3.org/2000/svg">
<g clip-path="url(#clip0_55_51)">
<path d="M0 143.997V48.0045L83 0L166 48.0045V143.997L83 192L0 143.997Z" fill="white"/>
<path d="M5.63856 51.3353L83 6.6707L160.361 51.3353V140.665L83 185.329L5.63856 140.665V51.3353Z" fill="#1E1E1E" stroke="url(#paint0_linear_55_51)" stroke-width="11.554"/>
<path d="M83.5098 13.775L82.8301 13.3826L82.1505 13.775L11.8139 54.3838L11.1342 54.7762V55.561V136.779V137.563L11.8139 137.956L82.1505 178.565L82.8301 178.957L83.5098 178.565L153.846 137.956L154.526 137.563V136.779V55.561V54.7762L153.846 54.3838L83.5098 13.775Z" fill="#1E1E1E" stroke="url(#paint1_linear_55_51)" stroke-width="2.71858"/>
<path d="M80.9654 73.8872L43.7505 84.6826L82.6578 101.464L122.32 85.9499L80.9654 73.8872Z" fill="url(#paint2_linear_55_51)"/>
<path d="M66.0352 90.6846L66.8978 85.3361L98.1259 79.125L104.51 84.1284L84.841 92.755L66.0352 90.6846Z" fill="#DE4607" fill-opacity="0.5"/>
<path d="M68.6105 43.4976H64.1373V86.8034H83.5832L102.963 81.1954V54.6476H100.151V57.3861H97.7152V54.6476H95.0272V57.3861H92.4987V54.6476H89.8727V66.6936H83.5832V43.4976L79.4926 43.4976V46.9819H76.042V43.4976H72.0738V46.9819H68.6105V43.4976Z" fill="url(#paint3_radial_55_51)"/>
<path d="M72.4487 55.1148C70.9216 56.031 70.9222 59.1633 71.3536 60.192L76.2317 60.2915C76.3976 59.9929 76.7303 58.8012 76.2317 56.9068C75.734 55.0152 73.942 54.2188 72.4487 55.1148Z" fill="#FFFFFC"/>
<path d="M95.2285 65.3401C93.9717 66.0864 93.9722 68.6379 94.3272 69.4759H98.3421C98.4787 69.2326 98.7524 68.343 98.3421 66.7998C97.9324 65.2589 96.4576 64.6102 95.2285 65.3401Z" fill="#FFFEEE"/>
<path d="M66.2789 109.923C61.0191 103.351 59.8037 117.423 57.7537 121.05C55.2361 125.504 49.4419 117.552 46.3667 107.765C43.9625 100.114 43.9211 91.7439 43.7787 84.646L81.4739 100.924L122.32 85.9502C122.32 85.9502 123.029 88.6142 121.59 101.727C120.151 114.839 111.756 128.986 109.341 120.36C106.925 111.733 107.443 105.005 101.059 108.8C94.6754 112.596 93.6402 126.562 82.3506 127.415C75.0452 127.966 71.5387 116.495 66.2789 109.923Z" fill="url(#paint4_linear_55_51)"/>
<path d="M73.9461 75.4706C71.0122 77.5435 70.6427 84.4427 71.4715 86.7701H81.5913C81.9101 86.0944 82.1721 83.8107 81.2143 79.5247C80.2579 75.2453 76.8151 73.4435 73.9461 75.4706Z" fill="url(#paint5_linear_55_51)"/>
<path d="M112.358 171.825C111.963 172.054 111.585 172.207 111.224 172.285C110.864 172.362 110.532 172.375 110.229 172.325C109.928 172.269 109.657 172.155 109.416 171.984C109.176 171.807 108.978 171.583 108.82 171.311C108.662 171.04 108.567 170.758 108.534 170.466C108.503 170.168 108.538 169.876 108.641 169.59C108.745 169.299 108.92 169.015 109.166 168.741C109.412 168.466 109.733 168.214 110.128 167.984C110.505 167.765 110.86 167.613 111.193 167.529C111.526 167.444 111.832 167.415 112.111 167.441C112.392 167.462 112.646 167.534 112.873 167.656C113.101 167.774 113.295 167.93 113.456 168.124L112.514 168.671C112.434 168.59 112.334 168.523 112.214 168.471C112.091 168.414 111.949 168.384 111.786 168.379C111.623 168.375 111.44 168.401 111.237 168.458C111.034 168.514 110.813 168.612 110.573 168.751C110.33 168.893 110.132 169.047 109.98 169.216C109.831 169.382 109.726 169.554 109.664 169.732C109.6 169.906 109.577 170.082 109.596 170.26C109.612 170.434 109.667 170.602 109.762 170.764C109.856 170.927 109.976 171.06 110.121 171.164C110.264 171.265 110.428 171.332 110.613 171.366C110.796 171.397 110.996 171.389 111.215 171.342C111.436 171.294 111.669 171.199 111.912 171.058C112.152 170.918 112.347 170.775 112.497 170.626C112.646 170.478 112.76 170.332 112.836 170.189C112.913 170.045 112.959 169.908 112.972 169.777C112.984 169.643 112.975 169.521 112.944 169.412L113.886 168.865C113.977 169.104 114.02 169.353 114.014 169.611C114.007 169.865 113.943 170.121 113.824 170.379C113.706 170.631 113.527 170.882 113.285 171.131C113.044 171.374 112.735 171.606 112.358 171.825ZM117.805 163.618L118.747 163.072L120.897 166.774L119.955 167.321L119.071 165.798L116.706 167.171L117.591 168.694L116.649 169.241L114.499 165.538L115.441 164.991L116.252 166.388L118.616 165.015L117.805 163.618ZM126.286 163.645L125.658 163.196L123.574 164.407L123.652 165.175L122.652 165.755L122.264 161.029L123.369 160.388L127.281 163.068L126.286 163.645ZM123.483 163.483L124.901 162.66L123.84 161.904C123.658 161.769 123.52 161.654 123.426 161.557C123.332 161.461 123.256 161.361 123.196 161.259L123.187 161.243L123.103 161.292L123.112 161.308C123.171 161.41 123.22 161.526 123.257 161.655C123.294 161.785 123.326 161.962 123.353 162.187L123.483 163.483ZM128.82 162.174L128.38 161.418L129.539 160.745L128.267 158.555L127.109 159.228L126.67 158.471L129.928 156.579L130.367 157.336L129.209 158.008L130.48 160.198L131.639 159.526L132.078 160.282L128.82 162.174ZM134.075 159.123L131.925 155.42L133.39 154.569L137.193 156.563L137.283 156.51C137.223 156.456 137.164 156.4 137.108 156.343C137.055 156.284 136.999 156.22 136.94 156.151C136.884 156.079 136.827 156.002 136.769 155.918C136.708 155.83 136.646 155.73 136.58 155.617L135.321 153.448L136.225 152.923L138.375 156.626L136.91 157.476L133.107 155.483L133.017 155.535C133.077 155.59 133.134 155.647 133.187 155.706C133.243 155.762 133.3 155.826 133.355 155.898C133.414 155.967 133.474 156.046 133.534 156.133C133.593 156.217 133.654 156.316 133.72 156.429L134.979 158.598L134.075 159.123Z" fill="white"/>
<path d="M158.308 83.0915C158.308 82.6266 158.349 82.2331 158.43 81.911C158.512 81.5888 158.624 81.3258 158.767 81.1219C158.914 80.9221 159.085 80.7753 159.281 80.6815C159.48 80.5918 159.697 80.5469 159.929 80.5469H160.009V81.654H159.953C159.835 81.654 159.725 81.6765 159.623 81.7213C159.525 81.7703 159.44 81.8498 159.366 81.9599C159.293 82.0741 159.236 82.2229 159.195 82.4064C159.154 82.5899 159.134 82.8183 159.134 83.0915C159.134 83.3851 159.148 83.6257 159.177 83.8133C159.205 84.0009 159.244 84.1456 159.293 84.2476C159.346 84.3536 159.405 84.425 159.47 84.4617C159.535 84.5024 159.605 84.5228 159.678 84.5228C159.817 84.5228 159.921 84.4657 159.99 84.3516C160.064 84.2415 160.117 84.0926 160.149 83.905C160.182 83.7215 160.202 83.5115 160.21 83.275C160.223 83.0385 160.237 82.7958 160.253 82.5471C160.27 82.3024 160.294 82.0618 160.327 81.8253C160.363 81.5888 160.424 81.3767 160.51 81.1892C160.596 81.0057 160.714 80.8568 160.865 80.7426C161.016 80.6325 161.212 80.5775 161.452 80.5775C161.632 80.5775 161.799 80.6183 161.954 80.6998C162.113 80.7814 162.249 80.918 162.364 81.1096C162.482 81.3054 162.576 81.5623 162.645 81.8804C162.714 82.2025 162.749 82.6042 162.749 83.0854C162.749 83.5421 162.708 83.9295 162.627 84.2476C162.545 84.5656 162.433 84.8246 162.29 85.0244C162.151 85.2242 161.986 85.369 161.795 85.4587C161.607 85.5525 161.405 85.5994 161.189 85.5994H161.14V84.4922H161.189C161.287 84.4922 161.379 84.4678 161.464 84.4188C161.554 84.374 161.632 84.2965 161.697 84.1864C161.766 84.0763 161.821 83.9315 161.862 83.7521C161.903 83.5727 161.923 83.3504 161.923 83.0854C161.923 82.7999 161.909 82.5654 161.88 82.3819C161.852 82.1984 161.813 82.0557 161.764 81.9538C161.715 81.8518 161.66 81.7805 161.599 81.7397C161.538 81.703 161.472 81.6846 161.403 81.6846C161.281 81.6846 161.189 81.7397 161.128 81.8498C161.067 81.964 161.022 82.1128 160.993 82.2963C160.969 82.4839 160.953 82.6959 160.944 82.9325C160.94 83.169 160.93 83.4096 160.914 83.6542C160.898 83.903 160.871 84.1456 160.834 84.3821C160.798 84.6187 160.734 84.8287 160.645 85.0122C160.555 85.1998 160.433 85.3486 160.278 85.4587C160.127 85.5729 159.927 85.63 159.678 85.63C159.491 85.63 159.313 85.5872 159.146 85.5015C158.979 85.42 158.832 85.2793 158.706 85.0795C158.583 84.8837 158.485 84.6227 158.412 84.2965C158.343 83.9744 158.308 83.5727 158.308 83.0915ZM158.308 90.2875C158.308 89.8797 158.357 89.5229 158.455 89.2171C158.553 88.9112 158.691 88.6563 158.871 88.4525C159.054 88.2486 159.277 88.0956 159.538 87.9937C159.799 87.8958 160.09 87.8469 160.412 87.8469L162.669 87.8469V88.9357H160.492C160.096 88.9357 159.79 89.0458 159.574 89.266C159.362 89.4903 159.256 89.8308 159.256 90.2875C159.256 90.7401 159.362 91.0786 159.574 91.3029C159.79 91.5272 160.096 91.6393 160.492 91.6393H162.669V92.7281H160.412C160.09 92.7281 159.799 92.6771 159.538 92.5752C159.277 92.4732 159.054 92.3203 158.871 92.1164C158.691 91.9166 158.553 91.6638 158.455 91.3579C158.357 91.0521 158.308 90.6953 158.308 90.2875ZM162.669 97.8572C162.669 98.159 162.633 98.422 162.559 98.6463C162.49 98.8706 162.39 99.0561 162.26 99.2029C162.133 99.3538 161.978 99.4659 161.795 99.5393C161.615 99.6127 161.413 99.6494 161.189 99.6494C160.965 99.6494 160.761 99.6127 160.577 99.5393C160.394 99.4659 160.237 99.3538 160.106 99.2029C159.98 99.0561 159.88 98.8706 159.807 98.6463C159.737 98.422 159.703 98.159 159.703 97.8572V96.1934H158.388V95.1046H162.669V97.8572ZM160.577 97.8144C160.577 98.0672 160.632 98.2548 160.743 98.3771C160.857 98.4995 161.006 98.5606 161.189 98.5606C161.373 98.5606 161.519 98.4995 161.629 98.3771C161.74 98.2548 161.795 98.0672 161.795 97.8144V96.1384H160.577V97.8144ZM158.388 101.883H162.669V102.972H159.293V105.89H158.388V101.883ZM158.388 108.853H159.739L162.669 106.877V108.125L161.189 109.097C161.038 109.191 160.906 109.256 160.791 109.293C160.677 109.33 160.569 109.348 160.467 109.348H160.382V109.452H160.467C160.569 109.452 160.677 109.47 160.791 109.507C160.906 109.544 161.038 109.609 161.189 109.703L162.669 110.675V111.917L159.739 109.941H158.388V108.853Z" fill="white"/>
<path d="M7.3521 112.646C7.3521 113.111 7.31132 113.505 7.22977 113.827C7.14821 114.149 7.03607 114.412 6.89334 114.616C6.74654 114.816 6.57527 114.963 6.37953 115.056C6.17971 115.146 5.96358 115.191 5.73115 115.191H5.65163V114.084H5.70668C5.82494 114.084 5.93504 114.061 6.03699 114.016C6.13486 113.968 6.22049 113.888 6.29389 113.778C6.36729 113.664 6.42438 113.515 6.46516 113.331C6.50594 113.148 6.52633 112.92 6.52633 112.646C6.52633 112.353 6.51206 112.112 6.48351 111.925C6.45497 111.737 6.41623 111.592 6.36729 111.49C6.31428 111.384 6.25515 111.313 6.18991 111.276C6.12466 111.235 6.05534 111.215 5.98194 111.215C5.84329 111.215 5.7393 111.272 5.66998 111.386C5.59658 111.496 5.54356 111.645 5.51094 111.833C5.47832 112.016 5.45793 112.226 5.44977 112.463C5.43754 112.699 5.42327 112.942 5.40695 113.191C5.39064 113.435 5.36618 113.676 5.33355 113.912C5.29685 114.149 5.23568 114.361 5.15005 114.549C5.06441 114.732 4.94615 114.881 4.79527 114.995C4.64439 115.105 4.44865 115.16 4.20806 115.16C4.02863 115.16 3.86144 115.12 3.70648 115.038C3.54744 114.956 3.41083 114.82 3.29665 114.628C3.17839 114.432 3.0846 114.176 3.01528 113.857C2.94596 113.535 2.91129 113.134 2.91129 112.652C2.91129 112.196 2.95207 111.808 3.03363 111.49C3.11519 111.172 3.22733 110.913 3.37006 110.713C3.5087 110.514 3.67386 110.369 3.86552 110.279C4.0531 110.185 4.25495 110.138 4.47108 110.138H4.52002V111.246H4.47108C4.37321 111.246 4.28146 111.27 4.19583 111.319C4.10611 111.364 4.02863 111.441 3.96339 111.551C3.89406 111.661 3.83901 111.806 3.79823 111.986C3.75745 112.165 3.73706 112.387 3.73706 112.652C3.73706 112.938 3.75134 113.172 3.77988 113.356C3.80843 113.539 3.84717 113.682 3.8961 113.784C3.94504 113.886 4.00009 113.957 4.06126 113.998C4.12242 114.035 4.18767 114.053 4.25699 114.053C4.37933 114.053 4.47108 113.998 4.53225 113.888C4.59342 113.774 4.63827 113.625 4.66682 113.441C4.69129 113.254 4.7076 113.042 4.71575 112.805C4.71983 112.569 4.73003 112.328 4.74634 112.084C4.76265 111.835 4.78916 111.592 4.82586 111.356C4.86256 111.119 4.92576 110.909 5.01548 110.726C5.10519 110.538 5.22753 110.389 5.38249 110.279C5.53337 110.165 5.73318 110.108 5.98194 110.108C6.16952 110.108 6.34691 110.151 6.5141 110.236C6.68129 110.318 6.82809 110.459 6.95451 110.658C7.07684 110.854 7.17471 111.115 7.24812 111.441C7.31744 111.763 7.3521 112.165 7.3521 112.646ZM7.3521 105.45C7.3521 105.858 7.30317 106.215 7.2053 106.521C7.10743 106.827 6.96878 107.081 6.78935 107.285C6.60585 107.489 6.38361 107.642 6.12262 107.744C5.86164 107.842 5.57007 107.891 5.24792 107.891H2.99081V106.802H5.1684C5.56395 106.802 5.86979 106.692 6.08592 106.472C6.29797 106.248 6.404 105.907 6.404 105.45C6.404 104.998 6.29797 104.659 6.08592 104.435C5.86979 104.211 5.56395 104.098 5.1684 104.098H2.99081L2.99081 103.01H5.24792C5.57007 103.01 5.86164 103.061 6.12262 103.163C6.38361 103.265 6.60585 103.417 6.78935 103.621C6.96878 103.821 7.10743 104.074 7.2053 104.38C7.30317 104.686 7.3521 105.043 7.3521 105.45ZM2.99081 97.8806C2.99081 97.5788 3.02751 97.3158 3.10092 97.0915C3.17024 96.8672 3.27015 96.6817 3.40064 96.5349C3.52705 96.384 3.68201 96.2719 3.86552 96.1985C4.04494 96.1251 4.2468 96.0884 4.47108 96.0884C4.69536 96.0884 4.89926 96.1251 5.08276 96.1985C5.26627 96.2719 5.42327 96.384 5.55376 96.5349C5.68017 96.6817 5.78008 96.8672 5.85348 97.0915C5.92281 97.3158 5.95747 97.5788 5.95747 97.8806V99.5444H7.27258V100.633H2.99081V97.8806ZM5.08276 97.9234C5.08276 97.6706 5.02771 97.483 4.91761 97.3607C4.80343 97.2383 4.65459 97.1772 4.47108 97.1772C4.28758 97.1772 4.14077 97.2383 4.03067 97.3607C3.92057 97.483 3.86552 97.6706 3.86552 97.9234V99.5994H5.08276V97.9234ZM2.99081 91.1022C2.99081 90.8004 3.02751 90.5374 3.10092 90.3131C3.17024 90.0888 3.27015 89.9033 3.40064 89.7565C3.52705 89.6056 3.68201 89.4934 3.86552 89.42C4.04494 89.3466 4.2468 89.3099 4.47108 89.3099C4.69536 89.3099 4.89926 89.3466 5.08276 89.42C5.26627 89.4934 5.42327 89.6056 5.55376 89.7565C5.68017 89.9033 5.78008 90.0888 5.85348 90.3131C5.92281 90.5374 5.95747 90.8004 5.95747 91.1022V92.7659H7.27258V93.8547H2.99081L2.99081 91.1022ZM5.08276 91.145C5.08276 90.8921 5.02771 90.7046 4.91761 90.5822C4.80343 90.4599 4.65459 90.3987 4.47108 90.3987C4.28758 90.3987 4.14077 90.4599 4.03067 90.5822C3.92057 90.7046 3.86552 90.8921 3.86552 91.145L3.86552 92.821H5.08276L5.08276 91.145ZM7.27258 87.0763H2.99081L2.99081 85.9875H6.36729L6.36729 83.0698H7.27258L7.27258 87.0763ZM7.27258 80.1067H5.92077L2.99081 82.0824V80.8346L4.47108 79.862C4.62196 79.7682 4.75449 79.703 4.86867 79.6663C4.98286 79.6296 5.09092 79.6112 5.19287 79.6112H5.2785V79.5073H5.19287C5.09092 79.5073 4.98286 79.4889 4.86867 79.4522C4.75449 79.4155 4.62196 79.3503 4.47108 79.2565L2.99081 78.2839L2.99081 77.0422L5.92077 79.0179H7.27258V80.1067Z" fill="white"/>
<path d="M22.8286 154.192C22.4271 153.958 22.1078 153.725 21.8706 153.492C21.6335 153.259 21.4629 153.03 21.3587 152.803C21.2601 152.576 21.2196 152.354 21.2373 152.138C21.2605 151.92 21.3307 151.711 21.4479 151.51L21.488 151.441L22.4442 151.999L22.4164 152.047C22.3568 152.149 22.3207 152.255 22.3081 152.366C22.301 152.475 22.3265 152.589 22.3846 152.708C22.4462 152.829 22.546 152.953 22.6839 153.081C22.8219 153.209 23.0088 153.342 23.2448 153.479C23.4984 153.627 23.7134 153.736 23.8898 153.806C24.0662 153.876 24.2107 153.916 24.3234 153.925C24.4417 153.932 24.5332 153.917 24.5978 153.879C24.6659 153.844 24.7184 153.794 24.7554 153.731C24.8253 153.611 24.8284 153.492 24.7647 153.375C24.7066 153.256 24.6048 153.135 24.4592 153.012C24.3172 152.892 24.1461 152.768 23.9459 152.642C23.7478 152.512 23.5454 152.378 23.3388 152.238C23.1357 152.101 22.9403 151.958 22.7524 151.811C22.5667 151.66 22.4143 151.5 22.2955 151.332C22.1802 151.165 22.1112 150.988 22.0887 150.8C22.0696 150.614 22.1207 150.418 22.242 150.21C22.3324 150.055 22.4519 149.931 22.6005 149.838C22.7511 149.742 22.9379 149.693 23.161 149.691C23.3897 149.687 23.6588 149.736 23.9685 149.836C24.2817 149.939 24.646 150.111 25.0616 150.354C25.4561 150.584 25.7701 150.815 26.0037 151.045C26.2373 151.276 26.4045 151.504 26.5051 151.728C26.6078 151.948 26.6496 152.164 26.6305 152.374C26.6169 152.584 26.5557 152.782 26.4467 152.968L26.4221 153.011L25.4659 152.452L25.4905 152.41C25.5399 152.326 25.565 152.234 25.5659 152.135C25.5723 152.035 25.5445 151.929 25.4823 151.818C25.4221 151.702 25.3248 151.582 25.1904 151.456C25.056 151.33 24.8743 151.201 24.6454 151.067C24.3989 150.923 24.1892 150.817 24.0163 150.75C23.8434 150.682 23.7006 150.643 23.5879 150.634C23.4752 150.625 23.3858 150.637 23.3198 150.669C23.2572 150.703 23.2085 150.75 23.1735 150.81C23.1119 150.916 23.1132 151.023 23.1774 151.131C23.2452 151.242 23.3512 151.355 23.4953 151.472C23.645 151.588 23.8199 151.709 24.02 151.835C24.2223 151.958 24.4249 152.088 24.628 152.226C24.8346 152.365 25.0308 152.51 25.2166 152.661C25.4024 152.812 25.5519 152.972 25.6652 153.142C25.782 153.315 25.8489 153.495 25.8658 153.685C25.8884 153.872 25.837 154.074 25.7116 154.289C25.6171 154.451 25.4907 154.582 25.3325 154.683C25.1777 154.787 24.9822 154.843 24.7459 154.851C24.5152 154.858 24.2405 154.811 23.9217 154.71C23.6086 154.608 23.2442 154.435 22.8286 154.192ZM32.4268 155.736L29.6955 154.142L29.2577 154.892L31.6192 156.27L31.2338 156.931L28.8723 155.552L28.4006 156.361L31.1319 157.955L30.7003 158.694L27.0286 156.552L29.1868 152.853L32.8585 154.996L32.4268 155.736ZM34.81 161.185C34.4155 160.955 34.0956 160.702 33.8503 160.426C33.605 160.151 33.4295 159.869 33.3239 159.581C33.2238 159.291 33.1888 158.999 33.2188 158.705C33.2544 158.41 33.3513 158.126 33.5096 157.855C33.6678 157.584 33.8659 157.362 34.1037 157.189C34.347 157.015 34.6184 156.902 34.9178 156.85C35.2228 156.796 35.5555 156.809 35.916 156.887C36.2764 156.965 36.6539 157.119 37.0483 157.349C37.4252 157.569 37.7326 157.803 37.9706 158.05C38.2086 158.298 38.3851 158.55 38.5002 158.806C38.6207 159.06 38.6837 159.316 38.6889 159.574C38.6997 159.831 38.66 160.077 38.5699 160.312L37.6295 159.764C37.6603 159.654 37.669 159.534 37.6555 159.403C37.6441 159.269 37.6001 159.13 37.5235 158.986C37.447 158.843 37.334 158.696 37.1846 158.548C37.0352 158.399 36.8408 158.255 36.6013 158.115C36.3583 157.974 36.126 157.878 35.9043 157.829C35.6863 157.782 35.4848 157.775 35.2998 157.809C35.1169 157.839 34.9527 157.906 34.8071 158.01C34.6635 158.111 34.5445 158.242 34.4499 158.404C34.3554 158.566 34.2987 158.736 34.2799 158.914C34.2631 159.088 34.2855 159.264 34.3471 159.442C34.4108 159.616 34.5167 159.786 34.6649 159.953C34.8167 160.122 35.014 160.277 35.257 160.419C35.4965 160.558 35.7177 160.657 35.9205 160.714C36.1233 160.771 36.3062 160.797 36.4691 160.793C36.632 160.789 36.7737 160.761 36.894 160.708C37.0164 160.652 37.1177 160.584 37.1979 160.503L38.1382 161.052C37.9756 161.25 37.7806 161.41 37.5534 161.532C37.3283 161.651 37.0742 161.722 36.7912 161.746C36.5138 161.768 36.2071 161.736 35.871 161.648C35.5405 161.559 35.1868 161.405 34.81 161.185ZM41.191 164.909C40.8388 164.703 40.5553 164.481 40.3404 164.242C40.1256 164.004 39.9754 163.755 39.8897 163.498C39.8061 163.236 39.7861 162.967 39.8296 162.691C39.8766 162.416 39.9813 162.139 40.1436 161.861L41.2813 159.912L42.2217 160.461L41.1241 162.341C40.9247 162.683 40.8657 163.003 40.9469 163.3C41.0337 163.596 41.2744 163.86 41.6688 164.09C42.0598 164.318 42.4055 164.397 42.7061 164.327C43.0088 164.253 43.2598 164.046 43.4592 163.704L44.5568 161.823L45.4971 162.372L44.3595 164.321C44.1971 164.6 44.0061 164.826 43.7865 165C43.5669 165.174 43.3228 165.289 43.0542 165.344C42.7912 165.399 42.503 165.391 42.1895 165.321C41.876 165.252 41.5432 165.114 41.191 164.909ZM49.5334 169.685L48.4134 169.032L48.5668 167.846C48.5845 167.687 48.5609 167.557 48.496 167.458C48.4367 167.357 48.3173 167.254 48.1377 167.15L47.0811 166.533L46.3319 167.817L45.3915 167.268L47.5497 163.57L49.9957 164.997C50.2493 165.145 50.4519 165.304 50.6037 165.473C50.761 165.64 50.8704 165.812 50.932 165.99C50.9992 166.166 51.0216 166.342 50.9993 166.518C50.9805 166.696 50.9217 166.869 50.8231 167.038C50.7347 167.19 50.6278 167.316 50.5025 167.418C50.3792 167.516 50.2465 167.589 50.1044 167.639C49.9644 167.685 49.8188 167.703 49.6676 167.695C49.5185 167.684 49.3739 167.644 49.2339 167.577L49.1815 167.667C49.2746 167.726 49.3519 167.787 49.4135 167.852C49.4751 167.916 49.5225 167.989 49.5557 168.069C49.5944 168.149 49.6186 168.241 49.6283 168.345C49.638 168.45 49.6363 168.574 49.6234 168.718L49.5334 169.685ZM48.8422 166.768C49.0641 166.897 49.2567 166.943 49.4199 166.906C49.5887 166.868 49.7203 166.768 49.8149 166.606C49.9094 166.444 49.9309 166.282 49.8792 166.119C49.8311 165.959 49.6961 165.814 49.4743 165.685L48.0109 164.831L47.3788 165.914L48.8422 166.768ZM51.1296 170.617L51.5704 169.861L52.7274 170.536L54.0038 168.349L52.8469 167.674L53.2877 166.919L56.5421 168.818L56.1012 169.573L54.9442 168.898L53.6678 171.085L54.8248 171.76L54.3839 172.516L51.1296 170.617ZM57.4371 174.298L59.139 171.382L57.6175 170.494L58.0738 169.712L62.0571 172.036L61.6008 172.818L60.0794 171.93L58.3775 174.847L57.4371 174.298ZM62.8722 177.47L63.5535 176.302L63.324 172.776L64.4017 173.405L64.4956 175.173C64.5005 175.351 64.4901 175.498 64.4642 175.615C64.4384 175.733 64.3997 175.835 64.3484 175.923L64.3052 175.997L64.395 176.05L64.4382 175.976C64.4895 175.887 64.5599 175.803 64.6491 175.723C64.7384 175.643 64.8615 175.562 65.0186 175.479L66.6047 174.69L67.6771 175.316L64.4939 176.851L63.8125 178.018L62.8722 177.47Z" fill="white"/>
<path d="M103.364 20.646C102.96 20.4148 102.639 20.1838 102.4 19.9529C102.161 19.7219 101.989 19.4939 101.883 19.2686C101.783 19.0419 101.74 18.8203 101.756 18.6039C101.778 18.3859 101.846 18.1761 101.962 17.9744L102.001 17.9054L102.962 18.4559L102.935 18.5036C102.876 18.6062 102.841 18.7129 102.829 18.8237C102.823 18.9329 102.849 19.0468 102.908 19.1652C102.971 19.2856 103.071 19.4092 103.21 19.5358C103.349 19.6624 103.537 19.7936 103.774 19.9295C104.029 20.0755 104.245 20.1827 104.422 20.2512C104.599 20.3197 104.744 20.3581 104.856 20.3663C104.975 20.373 105.066 20.3572 105.13 20.3188C105.198 20.2825 105.25 20.2325 105.287 20.1688C105.356 20.0485 105.358 19.9299 105.293 19.813C105.234 19.6945 105.132 19.5745 104.985 19.453C104.842 19.3334 104.67 19.2113 104.469 19.0867C104.27 18.9584 104.066 18.8254 103.859 18.6876C103.654 18.5518 103.458 18.4109 103.269 18.265C103.082 18.1156 102.928 17.9571 102.808 17.7895C102.691 17.624 102.621 17.4474 102.597 17.2597C102.576 17.0741 102.626 16.8769 102.746 16.6681C102.835 16.5124 102.953 16.3876 103.101 16.2937C103.251 16.1963 103.437 16.1457 103.661 16.1419C103.889 16.1366 104.159 16.183 104.469 16.281C104.783 16.381 105.149 16.5506 105.566 16.7899C105.963 17.017 106.278 17.245 106.514 17.4739C106.749 17.7028 106.918 17.9288 107.021 18.152C107.125 18.3716 107.169 18.5869 107.151 18.7978C107.139 19.0072 107.08 19.2056 106.972 19.3932L106.948 19.4356L105.987 18.8852L106.012 18.8427C106.06 18.7578 106.085 18.666 106.085 18.5674C106.09 18.4672 106.062 18.3615 105.999 18.2501C105.937 18.1353 105.839 18.0155 105.704 17.8909C105.568 17.7663 105.386 17.6381 105.156 17.5064C104.908 17.3644 104.698 17.2602 104.524 17.1938C104.351 17.1273 104.208 17.0899 104.095 17.0817C103.982 17.0735 103.893 17.0858 103.827 17.1186C103.765 17.1534 103.716 17.2009 103.682 17.261C103.621 17.3672 103.623 17.4742 103.688 17.582C103.757 17.6918 103.864 17.8047 104.009 17.9207C104.159 18.0352 104.335 18.1548 104.537 18.2795C104.74 18.4006 104.943 18.5291 105.148 18.6649C105.355 18.8027 105.553 18.9463 105.74 19.0958C105.927 19.2452 106.077 19.4045 106.192 19.5735C106.31 19.7446 106.378 19.9248 106.397 20.114C106.421 20.3017 106.371 20.5034 106.247 20.7192C106.154 20.882 106.029 21.0146 105.871 21.1171C105.718 21.2216 105.522 21.279 105.286 21.2894C105.056 21.2982 104.781 21.2534 104.461 21.1549C104.147 21.0548 103.781 20.8852 103.364 20.646ZM112.974 22.1133L110.23 20.541L109.798 21.2946L112.171 22.654L111.79 23.3174L109.418 21.958L108.953 22.77L111.697 24.3423L111.271 25.0853L107.582 22.9717L109.711 19.2567L113.4 21.3703L112.974 22.1133ZM115.4 27.5432C115.004 27.3161 114.682 27.0659 114.434 26.7924C114.187 26.519 114.009 26.2386 113.901 25.9512C113.799 25.6622 113.762 25.3706 113.789 25.0763C113.823 24.7804 113.917 24.4963 114.073 24.2238C114.229 23.9514 114.426 23.7278 114.662 23.5531C114.904 23.3769 115.175 23.2616 115.474 23.2073C115.778 23.1516 116.111 23.1613 116.472 23.2366C116.833 23.3119 117.212 23.4631 117.608 23.6902C117.987 23.9071 118.296 24.1384 118.536 24.384C118.776 24.6296 118.954 24.8799 119.071 25.135C119.194 25.3885 119.259 25.6443 119.266 25.9023C119.279 26.1587 119.241 26.405 119.153 26.6411L118.208 26.0998C118.238 25.99 118.246 25.8699 118.231 25.7394C118.219 25.6054 118.174 25.4667 118.096 25.3235C118.018 25.1802 117.904 25.0349 117.754 24.8876C117.603 24.7402 117.408 24.5976 117.167 24.4597C116.923 24.3198 116.69 24.2262 116.468 24.1789C116.249 24.1336 116.048 24.1286 115.863 24.1638C115.681 24.1954 115.517 24.2638 115.372 24.3688C115.229 24.4703 115.111 24.6024 115.018 24.7652C114.925 24.9279 114.869 25.0983 114.852 25.2763C114.837 25.4508 114.86 25.6266 114.923 25.8037C114.989 25.9773 115.096 26.1468 115.245 26.3124C115.398 26.48 115.597 26.6338 115.841 26.7737C116.082 26.9115 116.304 27.0082 116.507 27.0635C116.71 27.1189 116.893 27.1439 117.056 27.1386C117.219 27.1332 117.36 27.1038 117.48 27.0503C117.602 26.9933 117.703 26.9241 117.783 26.8428L118.727 27.3841C118.566 27.5832 118.372 27.7448 118.146 27.869C117.922 27.9896 117.669 28.0629 117.386 28.0888C117.109 28.1133 116.802 28.0831 116.465 27.9982C116.134 27.9118 115.779 27.7601 115.4 27.5432ZM121.81 31.2165C121.457 31.0137 121.171 30.7939 120.955 30.5569C120.738 30.3199 120.586 30.0729 120.498 29.8159C120.412 29.5553 120.39 29.2864 120.431 29.0093C120.476 28.7342 120.579 28.4569 120.739 28.1774L121.861 26.219L122.806 26.7603L121.723 28.6497C121.527 28.9929 121.47 29.313 121.554 29.61C121.643 29.9055 121.885 30.1668 122.282 30.3939C122.674 30.6189 123.021 30.6952 123.321 30.6227C123.623 30.5467 123.872 30.3371 124.069 29.9939L125.152 28.1046L126.096 28.6459L124.974 30.6043C124.814 30.8838 124.625 31.1114 124.407 31.2872C124.188 31.4629 123.945 31.5797 123.677 31.6376C123.414 31.6939 123.126 31.6885 122.812 31.6213C122.498 31.5542 122.164 31.4192 121.81 31.2165ZM130.19 35.9268L129.065 35.2821L129.209 34.0957C129.226 33.9359 129.201 33.8066 129.135 33.7079C129.075 33.6077 128.955 33.5059 128.775 33.4024L127.713 32.7942L126.974 34.0839L126.029 33.5425L128.158 29.8275L130.616 31.2356C130.87 31.3815 131.074 31.5383 131.227 31.7059C131.386 31.872 131.497 32.0436 131.56 32.2207C131.628 32.3963 131.652 32.5721 131.631 32.7481C131.614 32.9261 131.556 33.1001 131.459 33.2699C131.372 33.422 131.266 33.5494 131.141 33.6519C131.019 33.7509 130.887 33.8256 130.745 33.876C130.605 33.9229 130.46 33.9429 130.309 33.9362C130.16 33.9259 130.015 33.8875 129.874 33.8211L129.822 33.9113C129.916 33.9696 129.994 34.0306 130.056 34.0944C130.118 34.1582 130.166 34.2304 130.2 34.3108C130.239 34.3898 130.264 34.4816 130.275 34.5863C130.285 34.691 130.284 34.8152 130.273 34.9588L130.19 35.9268ZM129.476 33.0148C129.699 33.1426 129.892 33.1873 130.055 33.1491C130.223 33.1093 130.354 33.0081 130.447 32.8453C130.541 32.6826 130.561 32.5202 130.508 32.3583C130.459 32.1984 130.322 32.0546 130.1 31.9269L128.629 31.0845L128.006 32.1724L129.476 33.0148ZM131.794 36.8457L132.229 36.0868L133.391 36.7528L134.65 34.5556L133.488 33.8896L133.923 33.1307L137.192 35.004L136.757 35.763L135.595 35.097L134.336 37.2941L135.498 37.9602L135.063 38.7191L131.794 36.8457ZM138.13 40.4767L139.809 37.5471L138.281 36.6713L138.731 35.8858L142.732 38.1789L142.282 38.9643L140.754 38.0885L139.075 41.0181L138.13 40.4767ZM143.59 43.6055L144.262 42.4326L144.005 38.9081L145.088 39.5285L145.195 41.2964C145.202 41.474 145.193 41.6214 145.168 41.7387C145.143 41.856 145.105 41.9589 145.054 42.0474L145.012 42.1217L145.102 42.1734L145.144 42.0991C145.195 42.0106 145.265 41.926 145.353 41.8452C145.442 41.7643 145.564 41.6818 145.721 41.5975L147.301 40.7967L148.378 41.4141L145.207 42.9739L144.535 44.1468L143.59 43.6055Z" fill="white"/>
<path d="M31.8284 37.8093C31.434 38.0396 31.0566 38.1938 30.6962 38.2721C30.3358 38.3503 30.0041 38.3645 29.7011 38.3147C29.3996 38.2594 29.1282 38.1463 28.8869 37.9756C28.647 37.7993 28.4479 37.5756 28.2896 37.3044C28.1312 37.0332 28.0353 36.7516 28.0017 36.4596C27.9696 36.1619 28.0045 35.87 28.1066 35.5838C28.2101 35.292 28.3845 35.0083 28.6297 34.7329C28.875 34.4575 29.1949 34.2046 29.5893 33.9743C29.9661 33.7543 30.3208 33.6015 30.6533 33.516C30.9858 33.4304 31.2918 33.4005 31.5713 33.4262C31.8522 33.4464 32.1063 33.5176 32.3335 33.6399C32.5622 33.7566 32.7569 33.9121 32.9176 34.1064L31.9773 34.6554C31.8971 34.5747 31.7969 34.5081 31.6765 34.4556C31.5541 34.3996 31.4114 34.3696 31.2485 34.3655C31.0856 34.3615 30.9027 34.388 30.6999 34.445C30.4971 34.502 30.276 34.6004 30.0365 34.7403C29.7935 34.8821 29.5962 35.0375 29.4445 35.2063C29.2963 35.3731 29.1915 35.5453 29.1299 35.7229C29.0663 35.897 29.0439 36.073 29.0627 36.2509C29.0795 36.4252 29.1352 36.5934 29.2298 36.7554C29.3244 36.9174 29.4445 37.0503 29.5901 37.1542C29.7337 37.2545 29.898 37.3215 30.0829 37.3552C30.2658 37.3853 30.4663 37.3769 30.6844 37.3298C30.906 37.2807 31.1382 37.1852 31.3812 37.0434C31.6207 36.9035 31.8151 36.7593 31.9644 36.6107C32.1138 36.4622 32.2267 36.3159 32.3033 36.1721C32.3799 36.0282 32.4249 35.891 32.4383 35.7603C32.4497 35.6262 32.44 35.5044 32.4091 35.3949L33.3493 34.8459C33.4416 35.0848 33.4852 35.3333 33.48 35.5913C33.4727 35.8458 33.4099 36.102 33.2914 36.3601C33.1744 36.6126 32.9951 36.8636 32.7537 37.1132C32.5137 37.3573 32.2052 37.5893 31.8284 37.8093ZM37.2562 29.5899L38.1964 29.0409L40.3554 32.7385L39.4151 33.2875L38.5269 31.7662L36.1657 33.1448L37.054 34.6661L36.1137 35.2151L33.9547 31.5175L34.895 30.9685L35.7092 32.363L38.0704 30.9844L37.2562 29.5899ZM45.7375 29.596L45.1081 29.1489L43.0269 30.3641L43.1069 31.1319L42.1086 31.7149L41.7086 26.9902L42.8126 26.3456L46.7306 29.0161L45.7375 29.596ZM42.9341 29.4408L44.3497 28.6142L43.2865 27.8609C43.1042 27.7265 42.966 27.6112 42.8721 27.515C42.7781 27.4187 42.7013 27.3196 42.6417 27.2174L42.6324 27.2016L42.5479 27.2509L42.5572 27.2668C42.6168 27.3689 42.6654 27.4845 42.703 27.6137C42.7407 27.7428 42.7732 27.9198 42.8006 28.1446L42.9341 29.4408ZM48.267 28.1191L47.8259 27.3637L48.9828 26.6882L47.7059 24.5014L46.5491 25.1768L46.108 24.4214L49.3619 22.5215L49.803 23.2769L48.6461 23.9524L49.923 26.1392L51.0799 25.4638L51.5209 26.2192L48.267 28.1191ZM53.5148 25.055L51.3558 21.3573L52.819 20.503L56.6267 22.4872L56.7165 22.4348C56.6563 22.3802 56.5978 22.3246 56.5412 22.268C56.488 22.2093 56.4318 22.1453 56.3724 22.0761C56.3166 22.0048 56.2595 21.9271 56.2011 21.8432C56.1406 21.7558 56.0774 21.6557 56.0116 21.543L54.7471 19.3773L55.6504 18.8499L57.8093 22.5475L56.3461 23.4018L52.5385 21.4176L52.4487 21.4701C52.5089 21.5246 52.5656 21.5813 52.6187 21.6399C52.6754 21.6966 52.7316 21.7605 52.7874 21.8318C52.8468 21.9011 52.9067 21.9794 52.9672 22.0669C53.0256 22.1508 53.0877 22.2491 53.1535 22.3618L54.4181 24.5276L53.5148 25.055Z" fill="white"/>
<path d="M154.513 135.929H11.4867V137.798L38.9929 153.09H126.667L154.513 138.5V135.929Z" fill="url(#paint6_linear_55_51)"/>
<path d="M41.0591 147.609V139.997H43.7777V145.38H48.4537V147.609H41.0591ZM56.7086 147.609L56.3388 146.63H53.0113L52.6416 147.609H49.7599L53.0657 139.997H56.2845L59.5903 147.609H56.7086ZM53.7942 144.564H55.5559L55.2405 143.727C55.1463 143.488 55.0702 143.274 55.0122 143.085C54.9542 142.897 54.9071 142.723 54.8708 142.563C54.8418 142.404 54.8201 142.255 54.8056 142.117C54.7911 141.972 54.7838 141.827 54.7838 141.682V141.628H54.5663V141.682C54.5663 141.827 54.5591 141.972 54.5446 142.117C54.5301 142.255 54.5047 142.404 54.4685 142.563C54.4395 142.723 54.396 142.897 54.338 143.085C54.28 143.274 54.2038 143.488 54.1096 143.727L53.7942 144.564ZM63.279 147.609L60.082 139.997H63.1268L64.4317 143.879C64.5187 144.14 64.5876 144.365 64.6383 144.553C64.6963 144.734 64.7362 144.901 64.758 145.053C64.787 145.198 64.8051 145.34 64.8123 145.478C64.8268 145.615 64.8341 145.764 64.8341 145.923V145.978H65.0516V145.923C65.0516 145.764 65.0552 145.615 65.0624 145.478C65.0769 145.34 65.0951 145.198 65.1168 145.053C65.1458 144.901 65.1857 144.734 65.2364 144.553C65.2944 144.365 65.3669 144.14 65.4539 143.879L66.7588 139.997H69.8037L66.6066 147.609H63.279ZM77.2441 147.609L76.8743 146.63H73.5468L73.1771 147.609H70.2954L73.6012 139.997H76.82L80.1258 147.609H77.2441ZM74.3298 144.564H76.0914L75.776 143.727C75.6818 143.488 75.6057 143.274 75.5477 143.085C75.4897 142.897 75.4426 142.723 75.4063 142.563C75.3773 142.404 75.3556 142.255 75.3411 142.117C75.3266 141.972 75.3193 141.827 75.3193 141.682V141.628H75.1018V141.682C75.1018 141.827 75.0946 141.972 75.0801 142.117C75.0656 142.255 75.0402 142.404 75.004 142.563C74.975 142.723 74.9315 142.897 74.8735 143.085C74.8155 143.274 74.7394 143.488 74.6451 143.727L74.3298 144.564ZM82.1408 147.609V139.997H86.3274L87.1321 143.39C87.2046 143.687 87.2589 143.941 87.2952 144.151C87.3387 144.361 87.3604 144.528 87.3604 144.651V144.782H87.5779V144.651C87.5779 144.528 87.596 144.361 87.6323 144.151C87.6758 143.941 87.7338 143.687 87.8063 143.39L88.611 139.997H92.7976V147.609H90.1878V144.238C90.1878 143.912 90.195 143.625 90.2095 143.379C90.224 143.125 90.2458 142.897 90.2748 142.694C90.3038 142.483 90.3364 142.295 90.3726 142.128C90.4161 141.954 90.4632 141.787 90.514 141.628H90.2965L88.9916 146.413H85.9468L84.6419 141.628H84.4244C84.4751 141.787 84.5186 141.954 84.5549 142.128C84.5984 142.295 84.6346 142.483 84.6636 142.694C84.6926 142.897 84.7143 143.125 84.7288 143.379C84.7433 143.625 84.7506 143.912 84.7506 144.238V147.609H82.1408ZM100.413 147.761C99.558 147.761 98.8077 147.66 98.1625 147.457C97.5173 147.254 96.9772 146.975 96.5422 146.619C96.1145 146.257 95.7919 145.836 95.5744 145.358C95.3569 144.872 95.2482 144.354 95.2482 143.803C95.2482 143.245 95.3569 142.726 95.5744 142.248C95.7919 141.769 96.1145 141.353 96.5422 140.997C96.9772 140.635 97.5173 140.352 98.1625 140.149C98.8077 139.946 99.558 139.845 100.413 139.845C101.269 139.845 102.019 139.946 102.664 140.149C103.31 140.352 103.846 140.635 104.274 140.997C104.709 141.353 105.035 141.769 105.253 142.248C105.47 142.726 105.579 143.245 105.579 143.803C105.579 144.354 105.47 144.872 105.253 145.358C105.035 145.836 104.709 146.257 104.274 146.619C103.846 146.975 103.31 147.254 102.664 147.457C102.019 147.66 101.269 147.761 100.413 147.761ZM100.413 145.586C100.827 145.586 101.186 145.543 101.49 145.456C101.802 145.362 102.059 145.235 102.262 145.075C102.465 144.908 102.614 144.716 102.708 144.499C102.809 144.281 102.86 144.049 102.86 143.803C102.86 143.549 102.809 143.317 102.708 143.107C102.614 142.889 102.465 142.701 102.262 142.541C102.059 142.375 101.802 142.248 101.49 142.161C101.186 142.067 100.827 142.019 100.413 142.019C100 142.019 99.6378 142.067 99.326 142.161C99.0215 142.248 98.7678 142.375 98.5648 142.541C98.3618 142.701 98.2096 142.889 98.1081 143.107C98.0139 143.317 97.9667 143.549 97.9667 143.803C97.9667 144.049 98.0139 144.281 98.1081 144.499C98.2096 144.716 98.3618 144.908 98.5648 145.075C98.7678 145.235 99.0215 145.362 99.326 145.456C99.6378 145.543 100 145.586 100.413 145.586ZM113.835 147.609L113.465 146.63H110.138L109.768 147.609H106.886L110.192 139.997H113.411L116.717 147.609H113.835ZM110.921 144.564H112.682L112.367 143.727C112.273 143.488 112.197 143.274 112.139 143.085C112.081 142.897 112.033 142.723 111.997 142.563C111.968 142.404 111.946 142.255 111.932 142.117C111.917 141.972 111.91 141.827 111.91 141.682V141.628H111.693V141.682C111.693 141.827 111.685 141.972 111.671 142.117C111.656 142.255 111.631 142.404 111.595 142.563C111.566 142.723 111.522 142.897 111.464 143.085C111.406 143.274 111.33 143.488 111.236 143.727L110.921 144.564ZM119.981 147.609V142.226H117.154V139.997H125.527V142.226H122.7V147.609H119.981Z" fill="#1E1E1E"/>
</g>
<defs>
<linearGradient id="paint0_linear_55_51" x1="-38.9965" y1="20.3894" x2="123.439" y2="184.184" gradientUnits="userSpaceOnUse">
<stop stop-color="#ED3336"/>
<stop offset="0.260417" stop-color="#FF4471"/>
<stop offset="0.605343" stop-color="#F754BF"/>
<stop offset="1" stop-color="#04B6DD"/>
</linearGradient>
<linearGradient id="paint1_linear_55_51" x1="-0.936245" y1="73.0619" x2="155.043" y2="143.405" gradientUnits="userSpaceOnUse">
<stop stop-color="#20FFBC"/>
<stop offset="1" stop-color="#12D4FF"/>
</linearGradient>
<linearGradient id="paint2_linear_55_51" x1="83.1158" y1="90.8568" x2="82.9565" y2="101.464" gradientUnits="userSpaceOnUse">
<stop stop-color="#ECA03A"/>
<stop offset="1" stop-color="#F86E20"/>
</linearGradient>
<radialGradient id="paint3_radial_55_51" cx="0" cy="0" r="1" gradientUnits="userSpaceOnUse" gradientTransform="translate(71.2111 50.6574) rotate(69.705) scale(48.747 43.9152)">
<stop stop-color="#8FE3F8"/>
<stop offset="1" stop-color="#9387FC"/>
</radialGradient>
<linearGradient id="paint4_linear_55_51" x1="83.1269" y1="84.646" x2="83.1269" y2="127.434" gradientUnits="userSpaceOnUse">
<stop stop-color="#EA5128"/>
<stop offset="1" stop-color="#EF0948"/>
</linearGradient>
<linearGradient id="paint5_linear_55_51" x1="76.5432" y1="74.6387" x2="76.5432" y2="87.1824" gradientUnits="userSpaceOnUse">
<stop stop-color="#D8F3FF"/>
<stop offset="1" stop-color="#FFC5C0"/>
</linearGradient>
<linearGradient id="paint6_linear_55_51" x1="23.361" y1="146.804" x2="157.251" y2="139.667" gradientUnits="userSpaceOnUse">
<stop stop-color="#1DF6CB"/>
<stop offset="1" stop-color="#13D6FE"/>
</linearGradient>
<clipPath id="clip0_55_51">
<rect width="166" height="192" fill="white"/>
</clipPath>
</defs>
</svg>
